<svg xmlns='http://www.w3.org/2000/svg' xmlns:xlink='http://www.w3.org/1999/xlink' width="79" height="57" viewBox="0 0 79 57"><g fill="none" fill-rule="evenodd"><path d="M-20-29.741H98.774V88.554H-20z"></path><path d="M-20-29.741H98.774V88.554H-20z"></path><path d="M76.944 22.566a10.124 10.124 0 0 0-7.838-4.638 10.137 10.137 0 0 0-8.403 3.525l-3.618-2.697c.906-.37 2.8-1.2 2.924-1.708.073-.302-.89-.513-2.37-.61l6.784-6.165a.153.153 0 0 0 .028-.173l-1.724-3.239a.13.13 0 0 0-.207-.033l-7.059 6.405c-2.11 0-5.863.279-6.942-.398-1.725-1.084-1.927-2.672-2.563-3.244-.636-.57-1.354-.638-1.508-1.122a.048.048 0 0 1 .038-.063c.333-.086 2.183-.604 2.607-1.89.424-1.286-.439-3.028-.583-3.302a.057.057 0 0 1 0-.067l1.97-1.713a.057.057 0 0 0-.043-.096l-2.89.35a.048.048 0 0 1-.049 0c-.154-.201-1.305-1.573-3.661-.614-2.747 1.109-2.24 3.474-2.24 3.474.366 2.448 1.218 2.932 2.61 3.734.04 0 .054.062 0 .086-.896.744-9.905 8.114-18.23 10.988a.163.163 0 0 0 0 .303c2.409 1.04 9.636.48 11.77-.754a.053.053 0 0 1 .082.058c-.236.887-1.494 6.094.482 7.71l.11.082-2.678 1.881a.68.68 0 0 0 .481 1.233l1.378-.148a3.977 3.977 0 0 0 2.366-1.109l.482-.45 3.893 2.878-.516 4.103c-4.596-.247-8.78 2.626-10.182 6.993-1.4 4.37.335 9.135 4.219 11.58a10.149 10.149 0 0 0 12.315-1.14 10.047 10.047 0 0 0 2.007-12.155l.992-.633a2.45 2.45 0 0 0 2.908.243 2.428 2.428 0 0 0 1.067-2.705l4.12-1.2a.667.667 0 0 0 .481-.782l-.029-.134a.674.674 0 0 0-.66-.533h-3.498a.058.058 0 0 1-.048-.033l-1.05-2.366 2.09-12.236 3.373 2.496a10.048 10.048 0 0 0 1.906 13.047 10.148 10.148 0 0 0 13.239 0 10.048 10.048 0 0 0 1.906-13.047l-.039.028zm-28.05-7.245l4.766-.082.626 1.176a38.418 38.418 0 0 0-3.373.264c-.804.096-1.777-.931-2.066-1.257a.062.062 0 0 1 .048-.101h-.001zm-7.226 7.106c.4-.662 2.712-4.5 3.002-5.81a.058.058 0 0 1 .096-.025c1.542 1.79 4.794 2.817 5.044 2.88a.03.03 0 0 0 .029 0l4.177-1.282.935.691-4.37 3.997a3.003 3.003 0 0 0-1.7-.739c-2.516-.321-6.447.245-7.16.355a.053.053 0 0 1-.02-.067h-.033zM52.47 35.532a2.489 2.489 0 0 0-.81.24l-2.987-2.275a.048.048 0 0 1 0-.062l1.494-3.086a.053.053 0 0 1 .096 0l2.457 3.839-.25 1.344zm-6.336-3.335l-2.043-1.521 3.912-3.58-1.869 5.1v.001zm0-5.279l-3.18 2.908-3.189-2.365a36.91 36.91 0 0 0 6.427-.519l-.058-.024zm-2.539 5.053l2.096 1.555-.25.686a.927.927 0 0 0 .563 1.2L50.374 37l.13.096a2.438 2.438 0 0 0-.058 1.54l-.963.624a10.088 10.088 0 0 0-6.264-3.959l.376-3.33zm-.68 5.403a8.03 8.03 0 0 1 4.78 3.009l-5.603 3.55.824-6.559h-.001zM45.6 51.942a8.057 8.057 0 0 1-9.378-.518 7.979 7.979 0 0 1-2.471-9.026 8.032 8.032 0 0 1 7.817-5.187l-1.007 7.99a.695.695 0 0 0 .313.657.677.677 0 0 0 .728 0l6.817-4.319a7.985 7.985 0 0 1-2.828 10.403h.01-.001zm5.97-26.166a4.302 4.302 0 0 0-.202-1.718l3.695-3.358-1.6 9.352-1.893-4.276zm21.17 8.95a8.051 8.051 0 0 1-9.956-1.039 7.97 7.97 0 0 1-1.198-9.897l6.364 4.722a.677.677 0 0 0 .95-.135.675.675 0 0 0-.14-.96l-6.374-4.716a7.778 7.778 0 0 1 1.715-1.44 8.059 8.059 0 0 1 8.126-.48 7.997 7.997 0 0 1 4.374 6.837 7.991 7.991 0 0 1-3.872 7.131l.01-.024.001.001z" fill="currentColor" fill-rule="nonzero"></path><path d="M52.3 11.583l2.352.134a.4.4 0 0 0 .299-.105l5.81-5.432a.105.105 0 0 0-.067-.182l-2.284-.13a.618.618 0 0 0-.453.163l-5.728 5.355a.115.115 0 0 0 .072.197H52.3zM21.54 45.618l-3.715 2.25-3.527-2.864 1.118 4.39-3.618 2.409 4.408.465 1.291 4.352 1.604-4.107 4.418.283-3.416-3.004 1.437-4.174zm4.335-15.821l-3.72 2.25-3.526-2.864 1.118 4.39-3.618 2.405 4.408.47 1.291 4.347 1.61-4.102 4.413.283-3.416-3.004 1.44-4.175zM8.55 38.286l1.436-4.175-3.714 2.25-3.527-2.864 1.118 4.395-3.619 2.404 4.409.466 1.29 4.352 1.605-4.107 4.413.283-3.411-3.004z" fill="currentColor" fill-rule="nonzero"></path></g></svg>
